<svg width="22" height="21" viewBox="0 0 22 21" fill="none" xmlns="http://www.w3.org/2000/svg">
<path opacity="0.12" d="M2.10898 13.3078C1.93177 14.4695 2.72405 15.2758 3.69409 15.6777C7.41305 17.2183 12.5884 17.2183 16.3073 15.6777C17.2774 15.2758 18.0696 14.4695 17.8925 13.3078C17.7835 12.5939 17.245 11.9994 16.846 11.4189C16.3235 10.6493 16.2715 9.80967 16.2715 8.9165C16.2715 5.46472 13.464 2.6665 10.0007 2.6665C6.53749 2.6665 3.72999 5.46472 3.72999 8.9165C3.7299 9.80967 3.67798 10.6493 3.15539 11.4189C2.75641 11.9994 2.21789 12.5939 2.10898 13.3078Z" fill="#717784"/>
<path fill-rule="evenodd" clip-rule="evenodd" d="M10 2.0415C13.8064 2.0415 16.8958 5.1176 16.8958 8.9165C16.8959 9.80017 16.9551 10.467 17.3615 11.0665C17.418 11.1486 17.4929 11.2514 17.5749 11.3638L17.7219 11.5665C17.8216 11.7051 17.9216 11.8478 18.0042 11.9771C18.2227 12.3195 18.4362 12.7324 18.5096 13.2136C18.7491 14.7833 17.6452 15.7997 16.5459 16.2551C15.7269 16.5943 14.842 16.8618 13.919 17.0576C13.4404 18.7412 11.8576 19.9581 9.99919 19.9581C8.14074 19.9581 6.55774 18.741 6.07934 17.0573C5.15696 16.8615 4.27263 16.5942 3.4542 16.2551C2.35485 15.7997 1.25098 14.7833 1.49044 13.2136C1.56384 12.7324 1.77734 12.3195 1.99587 11.9771C2.11969 11.7831 2.28292 11.5591 2.4252 11.3638L2.50438 11.255C2.55505 11.1852 2.60093 11.1212 2.63859 11.0664C3.04494 10.467 3.10422 9.80009 3.10429 8.91645C3.10433 5.11757 6.19359 2.0415 10 2.0415ZM12.4691 17.3027C10.8454 17.5101 9.15294 17.51 7.52919 17.3024C8.00544 18.1347 8.92711 18.7081 9.99919 18.7081C11.0712 18.7081 11.9929 18.1348 12.4691 17.3027ZM10 3.2915C6.88002 3.2915 4.35429 5.81185 4.35429 8.9165C4.35422 9.8185 4.30973 10.8304 3.67178 11.77C3.56507 11.9253 3.47312 12.0503 3.38646 12.168L3.27289 12.3232C3.19867 12.4258 3.12599 12.5299 3.04957 12.6496C2.87187 12.928 2.76165 13.1693 2.72614 13.4021C2.61119 14.1558 3.09186 14.752 3.9326 15.1003C7.49841 16.5775 12.5016 16.5775 16.0674 15.1003C16.9082 14.752 17.3889 14.1558 17.2739 13.4021C17.2384 13.1693 17.1282 12.928 16.9504 12.6496C16.8359 12.47 16.7296 12.3257 16.614 12.1686L16.5252 12.0475C16.4644 11.9642 16.4002 11.8746 16.3303 11.7729C15.6904 10.8304 15.6459 9.81859 15.6458 8.91655C15.6458 5.8119 13.12 3.2915 10 3.2915Z" fill="#717784"/>
<g filter="url(#filter0_d_6582_893)">
<circle cx="15.5" cy="5.5" r="2.5" fill="#FB3748"/>
<circle cx="15.5" cy="5.5" r="3.5" stroke="white" stroke-width="2"/>
</g>
<defs>
<filter id="filter0_d_6582_893" x="9" y="0" width="13" height="13" filterUnits="userSpaceOnUse" color-interpolation-filters="sRGB">
<feFlood flood-opacity="0" result="BackgroundImageFix"/>
<feColorMatrix in="SourceAlpha" type="matrix" values="0 0 0 0 0 0 0 0 0 0 0 0 0 0 0 0 0 0 127 0" result="hardAlpha"/>
<feOffset dy="1"/>
<feGaussianBlur stdDeviation="1"/>
<feComposite in2="hardAlpha" operator="out"/>
<feColorMatrix type="matrix" values="0 0 0 0 0.0392157 0 0 0 0 0.0509804 0 0 0 0 0.0784314 0 0 0 0.03 0"/>
<feBlend mode="normal" in2="BackgroundImageFix" result="effect1_dropShadow_6582_893"/>
<feBlend mode="normal" in="SourceGraphic" in2="effect1_dropShadow_6582_893" result="shape"/>
</filter>
</defs>
</svg>
