<svg width="16" height="18" viewBox="0 0 16 18" fill="none" xmlns="http://www.w3.org/2000/svg">
<path opacity="0.12" fill-rule="evenodd" clip-rule="evenodd" d="M1.33301 10.8422V7.13163C1.33301 6.14436 1.55921 5.20856 1.96388 4.3707C2.24131 3.66699 3.56366 2.36502 4.19015 1.802C7.4993 -0.446267 12.2797 0.77059 14.0248 4.34868C14.0609 4.45416 14.1031 4.5616 14.1483 4.6767C14.3709 5.24324 14.6663 5.99533 14.6663 7.61144V10.8422C14.6663 14.7463 10.9863 17.8188 7.04729 17.27C5.80045 17.244 4.62301 16.5271 4.19015 16.1719C2.46302 14.9984 1.33301 13.0489 1.33301 10.8422ZM4.66634 10.1055V7.87911C4.66634 7.28675 4.77944 6.72526 4.98178 6.22255C5.12049 5.80033 5.78167 5.01914 6.09491 4.68133C7.74949 3.33237 10.1397 4.06248 11.0122 6.20934C11.0303 6.27262 11.0514 6.33709 11.074 6.40615C11.1853 6.74607 11.333 7.19733 11.333 8.16699V10.1055C11.333 12.4479 9.49297 14.2914 7.52348 13.9621C6.90006 13.9465 6.31134 13.5164 6.09491 13.3032C5.23135 12.5992 4.66634 11.4295 4.66634 10.1055Z" fill="#717784"/>
<path fill-rule="evenodd" clip-rule="evenodd" d="M3.83892 1.28475C7.45435 -1.17161 12.6701 0.145008 14.5865 4.07443C14.7378 4.38468 14.609 4.75884 14.2988 4.91015C13.9885 5.06146 13.6143 4.93262 13.463 4.62238C11.8893 1.39561 7.54425 0.278515 4.54139 2.31869C4.25587 2.51267 3.86716 2.43847 3.67318 2.15295C3.4792 1.86744 3.5534 1.47873 3.83892 1.28475ZM2.2357 3.80762C2.54652 3.95774 2.6768 4.33141 2.52667 4.64223C2.16188 5.39754 1.95801 6.24064 1.95801 7.13135V10.8419C1.95801 12.8284 2.97436 14.59 4.54139 15.6546C4.8269 15.8486 4.9011 16.2373 4.70712 16.5228C4.51314 16.8083 4.12443 16.8825 3.83892 16.6886C1.95169 15.4063 0.708008 13.2687 0.708008 10.8419V7.13135C0.708008 6.04753 0.956537 5.01901 1.40108 4.09859C1.5512 3.78777 1.92487 3.6575 2.2357 3.80762ZM14.6663 6.98615C15.0115 6.98615 15.2913 7.26598 15.2913 7.61115V10.8419C15.2913 15.147 11.2543 18.4869 6.96105 17.8888C6.61917 17.8411 6.38064 17.5254 6.42827 17.1835C6.4759 16.8416 6.79166 16.6031 7.13354 16.6507C10.7183 17.1502 14.0413 14.3451 14.0413 10.8419V7.61115C14.0413 7.26598 14.3212 6.98615 14.6663 6.98615ZM7.37435 4C7.37435 3.65482 7.65417 3.375 7.99935 3.375C10.2139 3.375 11.9577 5.25091 11.9577 7.5C11.9577 7.84518 11.6779 8.125 11.3327 8.125C10.9875 8.125 10.7077 7.84518 10.7077 7.5C10.7077 5.8831 9.46673 4.625 7.99935 4.625C7.65417 4.625 7.37435 4.34518 7.37435 4ZM5.24442 5.43057C5.55891 5.57285 5.69851 5.94314 5.55623 6.25763C5.38672 6.63228 5.29102 7.05312 5.29102 7.5V10.5C5.29102 12.1169 6.53196 13.375 7.99935 13.375C9.46673 13.375 10.7077 12.1169 10.7077 10.5C10.7077 10.1548 10.9875 9.875 11.3327 9.875C11.6779 9.875 11.9577 10.1548 11.9577 10.5C11.9577 12.7491 10.2139 14.625 7.99935 14.625C5.78484 14.625 4.04102 12.7491 4.04102 10.5V7.5C4.04102 6.87329 4.17549 6.27697 4.41736 5.74237C4.55964 5.42788 4.92993 5.28828 5.24442 5.43057ZM8.625 7.75C8.625 7.40482 8.34518 7.125 8 7.125C7.65482 7.125 7.375 7.40482 7.375 7.75V10.25C7.375 10.5952 7.65482 10.875 8 10.875C8.34518 10.875 8.625 10.5952 8.625 10.25L8.625 7.75Z" fill="#717784"/>
</svg>
