<svg width="22" height="22" viewBox="0 0 22 22" fill="none" xmlns="http://www.w3.org/2000/svg">
<path opacity="0.08" fill-rule="evenodd" clip-rule="evenodd" d="M17.6831 18.439C19.7194 16.6084 21 13.9537 21 11C21 5.47715 16.5228 1 11 1C5.47715 1 1 5.47715 1 11C1 13.9484 2.27596 16.5987 4.3058 18.429L5.06067 17.0193C5.95088 15.4614 7.6076 14.5 9.40188 14.5H12.5987C14.3929 14.5 16.0497 15.4614 16.9399 17.0193L17.6831 18.439ZM11 11.2505C12.5188 11.2505 13.75 10.0193 13.75 8.50049C13.75 6.98171 12.5188 5.75049 11 5.75049C9.48122 5.75049 8.25 6.98171 8.25 8.50049C8.25 10.0193 9.48122 11.2505 11 11.2505Z" fill="#717784"/>
<path fill-rule="evenodd" clip-rule="evenodd" d="M11 1.75C5.89137 1.75 1.75 5.89137 1.75 11C1.75 13.3715 2.64241 15.5345 4.10971 17.1716L4.40934 16.6472C5.43309 14.8556 7.33831 13.75 9.40174 13.75H12.5985C14.6619 13.75 16.5672 14.8556 17.5909 16.6472L17.8904 17.1714C19.3577 15.5343 20.25 13.3714 20.25 11C20.25 5.89137 16.1086 1.75 11 1.75ZM16.7685 18.2314L16.2885 17.3914C15.5319 16.0672 14.1237 15.25 12.5985 15.25H9.40174C7.8766 15.25 6.46839 16.0672 5.71171 17.3914L5.23164 18.2315C6.81325 19.4948 8.81843 20.25 11 20.25C13.1817 20.25 15.1869 19.4947 16.7685 18.2314ZM0.25 11C0.25 5.06294 5.06294 0.25 11 0.25C16.9371 0.25 21.75 5.06294 21.75 11C21.75 16.9371 16.9371 21.75 11 21.75C5.06294 21.75 0.25 16.9371 0.25 11ZM11 6.5C9.89543 6.5 9 7.39543 9 8.5C9 9.60457 9.89543 10.5 11 10.5C12.1046 10.5 13 9.60457 13 8.5C13 7.39543 12.1046 6.5 11 6.5ZM7.5 8.5C7.5 6.567 9.067 5 11 5C12.933 5 14.5 6.567 14.5 8.5C14.5 10.433 12.933 12 11 12C9.067 12 7.5 10.433 7.5 8.5Z" fill="#717784"/>
</svg>
