<svg width="22" height="22" viewBox="0 0 22 22" fill="none" xmlns="http://www.w3.org/2000/svg">
<path opacity="0.08" d="M20.5 13.0784C19.3003 13.7189 17.9301 14.0821 16.4751 14.0821C11.7491 14.0821 7.91792 10.2509 7.91792 5.52485C7.91792 4.06986 8.28105 2.69968 8.92163 1.5C4.66765 2.49698 1.5 6.31513 1.5 10.8731C1.5 16.1899 5.8101 20.5 11.1269 20.5C15.6849 20.5 19.503 17.3324 20.5 13.0784Z" fill="#717784"/>
<path fill-rule="evenodd" clip-rule="evenodd" d="M9.51629 1.04299C9.69577 1.27652 9.72196 1.59348 9.58323 1.85329C8.99927 2.94693 8.66792 4.1961 8.66792 5.52489C8.66792 9.8367 12.1633 13.3321 16.4751 13.3321C17.8039 13.3321 19.0531 13.0008 20.1467 12.4168C20.4065 12.2781 20.7235 12.3043 20.957 12.4837C21.1906 12.6632 21.2974 12.9628 21.2302 13.2495C20.1556 17.835 16.0409 21.25 11.1269 21.25C5.39589 21.25 0.75 16.6041 0.75 10.8732C0.75 5.95909 4.16505 1.84448 8.7505 0.769817C9.03726 0.70261 9.33681 0.809468 9.51629 1.04299ZM7.59638 2.72584C4.45025 4.09103 2.25 7.22583 2.25 10.8732C2.25 15.7757 6.22431 19.75 11.1269 19.75C14.7742 19.75 17.909 17.5498 19.2742 14.4036C18.3903 14.6821 17.4498 14.8321 16.4751 14.8321C11.3349 14.8321 7.16792 10.6651 7.16792 5.52489C7.16792 4.55022 7.31797 3.60975 7.59638 2.72584Z" fill="#717784"/>
</svg>
