<svg width="18" height="18" viewBox="0 0 18 18" fill="none" xmlns="http://www.w3.org/2000/svg">
<path opacity="0.12" d="M8.60685 17.3337H7.72518C4.39768 17.3337 2.73351 17.3337 1.69934 16.357C0.666008 15.3812 0.666016 13.8095 0.666016 10.667V7.33366C0.666016 4.19116 0.666008 2.61949 1.69934 1.64366C2.73351 0.66699 4.39768 0.666992 7.72518 0.666992H12.3327C12.466 0.666992 12.5969 0.674495 12.726 0.690328C10.6319 0.909495 8.99935 2.68116 8.99935 4.83366C8.99935 7.13449 10.8652 9.00033 13.166 9.00033C14.1043 9.00033 14.9693 8.69033 15.666 8.16699V11.0153C15.6643 13.927 15.6269 15.4178 14.6327 16.357C13.5985 17.3337 11.9344 17.3337 8.60685 17.3337Z" fill="#717784"/>
<path fill-rule="evenodd" clip-rule="evenodd" d="M3.37224 17.8332C4.72724 17.9123 6.65722 17.959 8.49973 17.959L8.50221 17.9573C10.1772 17.9573 11.7797 17.9181 12.8122 17.8306C13.6414 17.7806 15.8197 17.1307 16.0981 14.7332C16.3244 12.785 16.3089 11.3628 16.3031 10.8253L16.3031 10.8231C16.3022 10.7631 16.3022 10.714 16.3022 10.6781C16.3022 10.3331 16.0222 10.0531 15.6772 10.0531C15.3322 10.0531 15.0522 10.3331 15.0522 10.6781C15.0522 10.6956 15.0525 10.7157 15.0529 10.7382L15.0529 10.7383C15.0534 10.7673 15.0539 10.8003 15.0539 10.8373L15.054 10.8535C15.0592 11.3798 15.0725 12.7367 14.8564 14.5898C14.6389 16.4573 12.7514 16.584 12.7322 16.5848C12.7264 16.5857 12.7197 16.5865 12.7139 16.5865C10.5997 16.7682 5.99638 16.7348 3.44638 16.5857C1.66471 16.4823 1.30055 14.3523 1.30055 13.7873V13.779C1.28638 12.7207 1.29054 10.599 1.29554 8.35232C1.29804 7.16565 1.30055 5.93981 1.30055 4.80398C1.30055 2.18064 2.59474 1.53732 3.68141 1.45982C3.69224 1.45899 3.70223 1.45815 3.71306 1.45648C3.73223 1.45398 5.63307 1.22482 7.63974 1.30898C7.98641 1.32315 8.27641 1.05566 8.29058 0.710655C8.30474 0.365655 8.03723 0.0739839 7.69223 0.0598173C5.65806 -0.0251827 3.78138 0.189825 3.57639 0.213992C2.50222 0.294825 0.0497325 0.908145 0.0497325 4.80398C0.0497325 5.93898 0.0472276 7.16398 0.0447276 8.34981C0.0397276 10.5981 0.0355658 12.7223 0.0497325 13.7915C0.0505658 14.384 0.223056 15.3106 0.706389 16.1381C1.31556 17.1806 2.23724 17.7673 3.37224 17.8332ZM13.1667 9.62435C10.5242 9.62435 8.375 7.47518 8.375 4.83268C8.375 2.19018 10.5242 0.0410156 13.1667 0.0410156C15.8092 0.0410156 17.9583 2.19018 17.9583 4.83268C17.9583 7.47518 15.8092 9.62435 13.1667 9.62435ZM13.1667 1.29102C11.2142 1.29102 9.625 2.88018 9.625 4.83268C9.625 6.78518 11.2142 8.37435 13.1667 8.37435C15.1192 8.37435 16.7083 6.78518 16.7083 4.83268C16.7083 2.88018 15.1192 1.29102 13.1667 1.29102ZM12.3324 6.70827C12.3218 6.70827 12.3112 6.70824 12.3007 6.70743C12.0757 6.69576 11.8748 6.56411 11.774 6.36327C11.5932 6.00161 11.4448 5.89326 11.4023 5.86826C11.1032 5.82159 10.874 5.56327 10.874 5.25077C10.874 4.90577 11.154 4.62577 11.499 4.62577C11.624 4.62577 11.9557 4.66327 12.3248 5.00911C12.864 4.29994 13.7415 3.30743 14.624 2.99493C14.9499 2.87993 15.3065 3.04993 15.4215 3.37577C15.5365 3.70077 15.3665 4.05827 15.0407 4.17327C14.334 4.42327 13.3282 5.6841 12.8598 6.4191C12.7448 6.59993 12.5457 6.70827 12.3324 6.70827ZM8.16626 10.4581H4.83293C4.48793 10.4581 4.20793 10.1781 4.20793 9.83313C4.20793 9.48813 4.48793 9.20813 4.83293 9.20813H8.16626C8.51126 9.20813 8.79126 9.48813 8.79126 9.83313C8.79126 10.1781 8.51126 10.4581 8.16626 10.4581ZM4.83301 13.791H11.4997C11.8447 13.791 12.1247 13.511 12.1247 13.166C12.1247 12.821 11.8447 12.541 11.4997 12.541H4.83301C4.48801 12.541 4.20801 12.821 4.20801 13.166C4.20801 13.511 4.48801 13.791 4.83301 13.791Z" fill="#717784"/>
</svg>
