<svg width="16" height="18" viewBox="0 0 16 18" fill="none" xmlns="http://www.w3.org/2000/svg">
<path opacity="0.12" fill-rule="evenodd" clip-rule="evenodd" d="M8.00013 14.0003C8.39096 14.0003 8.76678 13.8487 9.04761 13.5787C9.24428 13.3895 9.44513 13.1987 9.6493 13.0053C12.1218 10.6595 14.941 7.98616 13.3893 4.25366C12.4793 2.06616 10.296 0.666992 8.00013 0.666992C5.70429 0.666992 3.52095 2.06616 2.61178 4.25366C1.06595 7.97116 3.85344 10.6245 6.31344 12.9662C6.53011 13.1728 6.74431 13.3762 6.95264 13.5787C7.23347 13.8487 7.60929 14.0003 8.00013 14.0003ZM8.00013 8.58366C9.15096 8.58366 10.0835 7.65116 10.0835 6.50033C10.0835 5.34949 9.15096 4.41699 8.00013 4.41699C6.84929 4.41699 5.91679 5.34949 5.91679 6.50033C5.91679 7.65116 6.84929 8.58366 8.00013 8.58366Z" fill="#717784"/>
<path fill-rule="evenodd" clip-rule="evenodd" d="M6.51929 14.0295C6.91929 14.4137 7.44513 14.6253 8.00013 14.6253C8.55513 14.6253 9.08096 14.4137 9.48096 14.0287C9.67596 13.8412 9.87596 13.6512 10.0785 13.4595L10.0787 13.4592C12.5754 11.0909 15.6834 8.14267 13.9659 4.01365C12.9784 1.63782 10.5801 0.0419922 8.00013 0.0419922C5.42013 0.0419922 3.02262 1.63782 2.03512 4.01365C0.323456 8.12782 3.40595 11.062 5.88262 13.4195L5.90624 13.442C6.11318 13.6393 6.31779 13.8344 6.51929 14.0295ZM3.1893 4.49365C3.98513 2.57865 5.91846 1.29199 8.00013 1.29199C10.0818 1.29199 12.016 2.57865 12.8126 4.49365C14.1993 7.82865 11.6676 10.2303 9.21847 12.5528C9.17205 12.597 9.12572 12.641 9.07951 12.6849C8.92248 12.8341 8.7669 12.9819 8.61431 13.1287C8.44847 13.2878 8.23013 13.3753 8.00013 13.3753C7.77013 13.3753 7.55179 13.287 7.38762 13.1295C7.17762 12.9262 6.96264 12.7212 6.74431 12.5137L6.74404 12.5134C4.31746 10.2035 1.80768 7.81436 3.1893 4.49365ZM8.00016 9.20866C6.50683 9.20866 5.29183 7.99366 5.29183 6.50033C5.29183 5.00699 6.50683 3.79199 8.00016 3.79199C9.4935 3.79199 10.7085 5.00699 10.7085 6.50033C10.7085 7.99366 9.4935 9.20866 8.00016 9.20866ZM8.00016 5.04199C7.196 5.04199 6.54183 5.69616 6.54183 6.50033C6.54183 7.30449 7.196 7.95866 8.00016 7.95866C8.80433 7.95866 9.4585 7.30449 9.4585 6.50033C9.4585 5.69616 8.80433 5.04199 8.00016 5.04199ZM10.2651 17.9587H5.73508C3.04258 17.9587 1.69093 17.9587 1.02593 16.972C0.961765 16.8762 0.905913 16.777 0.860079 16.677C0.352005 15.5892 1.1701 14.4232 2.30171 12.8103L2.30344 12.8078C2.50177 12.5253 2.89175 12.457 3.17425 12.6553C3.45675 12.8537 3.52509 13.2437 3.32675 13.5262C2.42759 14.8078 1.80509 15.747 1.99509 16.1528C2.01509 16.1962 2.03757 16.2353 2.06341 16.2745C2.35591 16.7087 3.70007 16.7087 5.73505 16.7087H5.73508H10.2651H10.2651C12.3001 16.7087 13.6443 16.7087 13.9376 16.2737C13.9634 16.2353 13.9859 16.1962 14.0034 16.157C14.1951 15.747 13.5726 14.8078 12.6734 13.5262C12.4751 13.2437 12.5434 12.8537 12.8259 12.6553C13.1084 12.457 13.4984 12.5253 13.6967 12.8078C14.8292 14.422 15.6476 15.5887 15.1384 16.6812C15.0943 16.777 15.0393 16.8762 14.9751 16.9712C14.3093 17.9587 12.9576 17.9587 10.2651 17.9587Z" fill="#717784"/>
</svg>
