<svg width="18" height="18" viewBox="0 0 18 18" fill="none" xmlns="http://www.w3.org/2000/svg">
<circle opacity="0.12" cx="9.00033" cy="9.00033" r="8.33333" fill="#717784"/>
<path fill-rule="evenodd" clip-rule="evenodd" d="M1.29199 9.00033C1.29199 4.74313 4.74313 1.29199 9.00033 1.29199C13.2575 1.29199 16.7087 4.74313 16.7087 9.00033C16.7087 13.2575 13.2575 16.7087 9.00033 16.7087C4.74313 16.7087 1.29199 13.2575 1.29199 9.00033ZM9.00033 0.0419922C4.05277 0.0419922 0.0419922 4.05277 0.0419922 9.00033C0.0419922 13.9479 4.05277 17.9587 9.00033 17.9587C13.9479 17.9587 17.9587 13.9479 17.9587 9.00033C17.9587 4.05277 13.9479 0.0419922 9.00033 0.0419922ZM9.625 5.66699C9.625 5.32181 9.34518 5.04199 9 5.04199C8.65482 5.04199 8.375 5.32181 8.375 5.66699V9.00033C8.375 9.16609 8.44085 9.32506 8.55806 9.44227L10.2247 11.1089C10.4688 11.353 10.8645 11.353 11.1086 11.1089C11.3527 10.8649 11.3527 10.4691 11.1086 10.2251L9.625 8.74144V5.66699Z" fill="#717784"/>
</svg>
