<svg width="40" height="40" viewBox="0 0 40 40" fill="none" xmlns="http://www.w3.org/2000/svg">
<rect x="0.5" y="0.5" width="39" height="39" rx="19.5" fill="white"/>
<rect x="0.5" y="0.5" width="39" height="39" rx="19.5" stroke="#E1E4EA"/>
<path opacity="0.12" d="M12.1089 22.3078C11.9317 23.4695 12.724 24.2758 13.694 24.6777C17.413 26.2183 22.5883 26.2183 26.3072 24.6777C27.2773 24.2758 28.0696 23.4695 27.8924 22.3078C27.7835 21.5939 27.245 20.9994 26.846 20.4189C26.3234 19.6493 26.2715 18.8097 26.2714 17.9165C26.2714 14.4647 23.4639 11.6665 20.0007 11.6665C16.5374 11.6665 13.7299 14.4647 13.7299 17.9165C13.7298 18.8097 13.6779 19.6493 13.1553 20.4189C12.7564 20.9994 12.2178 21.5939 12.1089 22.3078Z" fill="#717784"/>
<path fill-rule="evenodd" clip-rule="evenodd" d="M20.0001 11.0415C23.8066 11.0415 26.8959 14.1176 26.8959 17.9165C26.896 18.8002 26.9552 19.467 27.3617 20.0665C27.4182 20.1486 27.4931 20.2514 27.575 20.3638L27.722 20.5665C27.8217 20.7051 27.9218 20.8478 28.0043 20.9771C28.2228 21.3195 28.4363 21.7324 28.5097 22.2136C28.7492 23.7833 27.6453 24.7997 26.546 25.2551C25.7271 25.5943 24.8422 25.8618 23.9192 26.0576C23.4406 27.7412 21.8577 28.9581 19.9993 28.9581C18.1409 28.9581 16.5579 27.741 16.0795 26.0573C15.1571 25.8615 14.2727 25.5942 13.4543 25.2551C12.355 24.7997 11.2511 23.7833 11.4906 22.2136C11.564 21.7324 11.7775 21.3195 11.996 20.9771C12.1198 20.7831 12.283 20.5591 12.4253 20.3638L12.5045 20.255C12.5552 20.1852 12.601 20.1212 12.6387 20.0664C13.0451 19.467 13.1043 18.8001 13.1044 17.9165C13.1044 14.1176 16.1937 11.0415 20.0001 11.0415ZM22.4692 26.3027C20.8455 26.5101 19.1531 26.51 17.5293 26.3024C18.0056 27.1347 18.9272 27.7081 19.9993 27.7081C21.0713 27.7081 21.993 27.1348 22.4692 26.3027ZM20.0001 12.2915C16.8801 12.2915 14.3544 14.8119 14.3544 17.9165C14.3543 18.8185 14.3098 19.8304 13.6719 20.77C13.5652 20.9253 13.4732 21.0503 13.3866 21.168L13.273 21.3232C13.1988 21.4258 13.1261 21.5299 13.0497 21.6496C12.872 21.928 12.7618 22.1693 12.7263 22.4021C12.6113 23.1558 13.092 23.752 13.9327 24.1003C17.4985 25.5775 22.5017 25.5775 26.0676 24.1003C26.9083 23.752 27.389 23.1558 27.274 22.4021C27.2385 22.1693 27.1283 21.928 26.9506 21.6496C26.836 21.47 26.7297 21.3257 26.6142 21.1686L26.5253 21.0475C26.4645 20.9642 26.4003 20.8746 26.3304 20.7729C25.6905 19.8304 25.646 18.8186 25.6459 17.9166C25.6459 14.8119 23.1201 12.2915 20.0001 12.2915Z" fill="#717784"/>
<g filter="url(#filter0_d_42_4465)">
<circle cx="25.5" cy="14.5" r="2.5" fill="#FB3748"/>
<circle cx="25.5" cy="14.5" r="3.5" stroke="white" stroke-width="2"/>
</g>
<defs>
<filter id="filter0_d_42_4465" x="19" y="9" width="13" height="13" filterUnits="userSpaceOnUse" color-interpolation-filters="sRGB">
<feFlood flood-opacity="0" result="BackgroundImageFix"/>
<feColorMatrix in="SourceAlpha" type="matrix" values="0 0 0 0 0 0 0 0 0 0 0 0 0 0 0 0 0 0 127 0" result="hardAlpha"/>
<feOffset dy="1"/>
<feGaussianBlur stdDeviation="1"/>
<feComposite in2="hardAlpha" operator="out"/>
<feColorMatrix type="matrix" values="0 0 0 0 0.0392157 0 0 0 0 0.0509804 0 0 0 0 0.0784314 0 0 0 0.03 0"/>
<feBlend mode="normal" in2="BackgroundImageFix" result="effect1_dropShadow_42_4465"/>
<feBlend mode="normal" in="SourceGraphic" in2="effect1_dropShadow_42_4465" result="shape"/>
</filter>
</defs>
</svg>
