<svg width="18" height="22" viewBox="0 0 18 22" fill="none" xmlns="http://www.w3.org/2000/svg">
<path opacity="0.08" d="M1 17.6458L1 7.05426C1 4.20025 1 2.77325 1.87868 1.88663C2.75736 1 4.17157 1 7 1L11 1C13.8284 1 15.2426 1 16.1213 1.88663C17 2.77325 17 4.20025 17 7.05426V17.6458C17 19.1575 17 19.9133 16.538 20.2108C15.7831 20.6971 14.6161 19.6774 14.0291 19.3073C13.5441 19.0014 13.3017 18.8485 13.0325 18.8397C12.7417 18.8301 12.4949 18.9768 11.9709 19.3073L10.06 20.5124C9.54454 20.8374 9.28679 21 9 21C8.71321 21 8.45546 20.8374 7.94 20.5124L6.02913 19.3073C5.54415 19.0014 5.30166 18.8485 5.03253 18.8397C4.74172 18.8301 4.49493 18.9768 3.97087 19.3073C3.38395 19.6774 2.21687 20.6971 1.46195 20.2108C1 19.9133 1 19.1575 1 17.6458Z" fill="#717784"/>
<path fill-rule="evenodd" clip-rule="evenodd" d="M7.54152 21.1464C8.11624 21.5092 8.49615 21.749 9 21.749V21.748C9.504 21.748 9.88401 21.508 10.46 21.144L12.371 19.939L12.3791 19.9339C12.5899 19.8014 12.931 19.587 13.007 19.587H13.008C13.084 19.595 13.374 19.778 13.629 19.939C13.7023 19.985 13.796 20.0504 13.8968 20.1209L13.937 20.149L13.9379 20.1496C14.67 20.6617 15.8924 21.5168 16.945 20.839C17.75 20.32 17.75 19.3691 17.75 17.6442V17.644L17.75 7.052V7.05197C17.75 4.09199 17.75 2.46203 16.654 1.35703C15.556 0.248047 13.938 0.248047 11.0001 0.248047H11L7 0.248047H6.99988C4.06295 0.248047 2.44501 0.248047 1.34702 1.35703C0.250021 2.46203 0.25 4.092 0.25 7.052L0.25 17.644C0.25 19.37 0.250006 20.32 1.05601 20.84C2.10801 21.518 3.33199 20.662 4.06299 20.15L4.07215 20.1436C4.18477 20.065 4.29116 19.9907 4.371 19.94L4.37909 19.9349L4.37915 19.9349L4.37918 19.9349C4.58995 19.8024 4.93097 19.588 5.00698 19.588H5.00801C5.08401 19.596 5.374 19.779 5.629 19.94L7.54102 21.146L7.54152 21.1464ZM5.05898 18.089H5.004C4.497 18.089 4.106 18.335 3.571 18.672C3.458 18.744 3.33398 18.83 3.20298 18.922C2.29598 19.557 1.98 19.636 1.877 19.585C1.75 19.391 1.75 18.504 1.75 17.645L1.75 7.05303C1.75 4.40903 1.75001 3.08101 2.41201 2.41401C3.07 1.74902 4.38296 1.74902 6.99988 1.74902H7L11 1.74902H11.0001C13.617 1.74902 14.931 1.74902 15.589 2.41401C16.25 3.081 16.25 4.40797 16.25 7.05287V7.05303V17.645C16.25 18.503 16.25 19.39 16.123 19.584C16.019 19.635 15.703 19.555 14.797 18.921C14.666 18.829 14.542 18.742 14.429 18.671C13.889 18.33 13.532 18.105 13.059 18.089C12.525 18.07 12.1265 18.3211 11.5742 18.669L11.571 18.671L9.65801 19.877L9.64478 19.8853L9.64475 19.8853L9.64471 19.8854C9.37801 20.0533 9.07967 20.2412 9 20.248C8.919 20.241 8.61199 20.048 8.33999 19.876L6.429 18.671C5.889 18.33 5.53198 18.105 5.05898 18.089ZM13 5.75C13.4142 5.75 13.75 5.41421 13.75 5C13.75 4.58579 13.4142 4.25 13 4.25L5 4.25C4.58579 4.25 4.25 4.58579 4.25 5C4.25 5.41421 4.58579 5.75 5 5.75L13 5.75ZM7.75 9C7.75 9.41421 7.41421 9.75 7 9.75H5C4.58579 9.75 4.25 9.41421 4.25 9C4.25 8.58579 4.58579 8.25 5 8.25H7C7.41421 8.25 7.75 8.58579 7.75 9ZM12.25 8C12.25 7.58579 11.9142 7.25 11.5 7.25C11.0858 7.25 10.75 7.58579 10.75 8V8.24489C9.91601 8.51697 9.25 9.23238 9.25 10.1875C9.25 11.4175 10.3546 12.25 11.5 12.25C12.0114 12.25 12.25 12.5928 12.25 12.8125C12.25 13.0322 12.0114 13.375 11.5 13.375C11.1136 13.375 10.8582 13.1608 10.7808 12.9691C10.6256 12.585 10.1885 12.3995 9.80445 12.5546C9.42038 12.7097 9.23481 13.1468 9.38994 13.5309C9.63038 14.1261 10.1404 14.5603 10.75 14.7573V15C10.75 15.4142 11.0858 15.75 11.5 15.75C11.9142 15.75 12.25 15.4142 12.25 15V14.7551C13.084 14.483 13.75 13.7676 13.75 12.8125C13.75 11.5825 12.6454 10.75 11.5 10.75C10.9886 10.75 10.75 10.4072 10.75 10.1875C10.75 9.96778 10.9886 9.625 11.5 9.625C11.8864 9.625 12.1418 9.83918 12.2192 10.0309C12.3744 10.415 12.8115 10.6005 13.1956 10.4454C13.5796 10.2903 13.7652 9.85316 13.6101 9.4691C13.3696 8.87386 12.8596 8.4397 12.25 8.24272V8Z" fill="#717784"/>
</svg>
