<svg width="22" height="22" viewBox="0 0 22 22" fill="none" xmlns="http://www.w3.org/2000/svg">
<path opacity="0.08" d="M21 11C21 5.47715 16.5228 1 11 1C5.47715 1 1 5.47715 1 11C1 16.5228 5.47715 21 11 21C16.5228 21 21 16.5228 21 11Z" fill="#717784"/>
<path fill-rule="evenodd" clip-rule="evenodd" d="M1.75 11C1.75 16.1086 5.89137 20.25 11 20.25C16.1086 20.25 20.25 16.1086 20.25 11C20.25 5.89137 16.1086 1.75 11 1.75C5.89137 1.75 1.75 5.89137 1.75 11ZM11 21.75C5.06294 21.75 0.25 16.9371 0.25 11C0.25 5.06294 5.06294 0.25 11 0.25C16.9371 0.25 21.75 5.06294 21.75 11C21.75 16.9371 16.9371 21.75 11 21.75ZM10.9961 10C10.4438 10 9.99609 10.4477 9.99609 11C9.99609 11.5523 10.4438 12 10.9961 12H11.0051C11.5574 12 12.0051 11.5523 12.0051 11C12.0051 10.4477 11.5574 10 11.0051 10H10.9961ZM14 11C14 10.4477 14.4477 10 15 10H15.009C15.5613 10 16.009 10.4477 16.009 11C16.009 11.5523 15.5613 12 15.009 12H15C14.4477 12 14 11.5523 14 11ZM7 10C6.44772 10 6 10.4477 6 11C6 11.5523 6.44772 12 7 12H7.00898C7.56127 12 8.00898 11.5523 8.00898 11C8.00898 10.4477 7.56127 10 7.00898 10H7Z" fill="#717784"/>
</svg>
