<svg width="22" height="22" viewBox="0 0 22 22" fill="none" xmlns="http://www.w3.org/2000/svg">
<path opacity="0.08" fill-rule="evenodd" clip-rule="evenodd" d="M20.8969 12.7492C20.7939 12.8837 20.5329 12.9541 20.011 13.0949C18.0609 13.6209 16.8412 15.6599 17.3448 17.5975C17.4833 18.1303 17.5525 18.3967 17.4864 18.553C17.4204 18.7093 17.2307 18.817 16.8513 19.0324L15.1266 20.0116C14.7544 20.223 14.5682 20.3287 14.4012 20.3061C14.2341 20.2836 14.0457 20.0956 13.6689 19.7196C12.2088 18.2627 9.79274 18.2627 8.33271 19.7197C7.95588 20.0957 7.76746 20.2837 7.6004 20.3062C7.43334 20.3288 7.24721 20.2231 6.87495 20.0117L5.15025 19.0325C4.77092 18.8171 4.58126 18.7094 4.51516 18.5532C4.44907 18.3969 4.51829 18.1305 4.65672 17.5976C5.16008 15.6599 3.93939 13.6209 1.98902 13.0949C1.46711 12.9541 1.20615 12.8837 1.10308 12.7492C1 12.6146 1 12.3982 1 11.9652V10.0316C1 9.59863 1 9.38215 1.10308 9.24759C1.20617 9.11303 1.46712 9.04267 1.98902 8.90195C3.93972 8.37598 5.16137 6.33685 4.65825 4.39915C4.51987 3.86622 4.45068 3.59976 4.51678 3.44351C4.58287 3.28726 4.77253 3.17958 5.15184 2.96422L6.87653 1.98499C7.24877 1.77365 7.43489 1.66797 7.60193 1.69048C7.76898 1.71298 7.95743 1.90099 8.33434 2.277C9.79358 3.73278 12.208 3.73284 13.6672 2.27709C14.0442 1.90108 14.2326 1.71308 14.3997 1.69058C14.5667 1.66807 14.7528 1.77374 15.125 1.98509L16.8497 2.96432C17.2291 3.17969 17.4187 3.28738 17.4848 3.44364C17.5509 3.59991 17.4817 3.86635 17.3433 4.39923C16.8399 6.33687 18.0606 8.37594 20.011 8.90193C20.5329 9.04269 20.7938 9.11306 20.8969 9.24762C21 9.38218 21 9.59865 21 10.0316V11.9652C21 12.3981 21 12.6146 20.8969 12.7492ZM11 14.4984C12.933 14.4984 14.5 12.9314 14.5 10.9984C14.5 9.06536 12.933 7.49836 11 7.49836C9.067 7.49836 7.5 9.06536 7.5 10.9984C7.5 12.9314 9.067 14.4984 11 14.4984Z" fill="#717784"/>
<path fill-rule="evenodd" clip-rule="evenodd" d="M7.24685 2.6372C7.34177 2.58331 7.41633 2.54101 7.48104 2.50591L7.49106 2.50049C7.56658 2.57092 7.66484 2.66849 7.80465 2.80796C9.55662 4.55578 12.4449 4.55587 14.1969 2.80806C14.3368 2.66858 14.435 2.57101 14.5105 2.50059L14.5206 2.506C14.5853 2.5411 14.6598 2.58341 14.7548 2.6373L16.4795 3.61653C16.5761 3.67142 16.6523 3.71468 16.7169 3.75307L16.7299 3.76081C16.7063 3.86694 16.6699 4.00846 16.6174 4.21066C16.0071 6.55971 17.4812 8.99649 19.8157 9.62607C20.0108 9.67868 20.1474 9.71586 20.2483 9.74681L20.2485 9.75988C20.25 9.83441 20.25 9.92122 20.25 10.0316V11.9652C20.25 12.0756 20.25 12.1624 20.2485 12.2369L20.2483 12.25C20.1474 12.281 20.0108 12.3182 19.8157 12.3708C17.4813 13.0005 16.0085 15.4374 16.6189 17.7862C16.6715 17.9883 16.7079 18.1298 16.7315 18.2359L16.7185 18.2436C16.6539 18.282 16.5777 18.3253 16.481 18.3802L14.7563 19.3594C14.6614 19.4133 14.5868 19.4556 14.5221 19.4907L14.5121 19.4961C14.4366 19.4257 14.3384 19.3281 14.1986 19.1887C12.4458 17.4396 9.55573 17.4397 7.80295 19.1888C7.6632 19.3282 7.56497 19.4258 7.48947 19.4962L7.47947 19.4908C7.41476 19.4557 7.34019 19.4134 7.24526 19.3595L5.52057 18.3803C5.42388 18.3254 5.34775 18.2821 5.28307 18.2437L5.27007 18.236C5.29369 18.1299 5.33011 17.9884 5.38263 17.7862C5.99287 15.4371 4.51878 13.0003 2.18432 12.3708C1.98924 12.3181 1.85262 12.281 1.75175 12.25L1.75148 12.2369C1.75004 12.1624 1.75001 12.0756 1.75001 11.9652V10.0316C1.75001 9.92122 1.75004 9.83441 1.75148 9.75987L1.75175 9.74681C1.85262 9.71586 1.98923 9.67869 2.18428 9.6261C4.5188 8.99664 5.99419 6.56002 5.38418 4.21067C5.33167 4.00842 5.29526 3.86687 5.27165 3.76072L5.28466 3.75297C5.34934 3.71458 5.42547 3.67132 5.52215 3.61643L7.24685 2.6372ZM7.70208 0.947199C7.41768 0.908885 7.17792 0.991654 7.01469 1.06331C6.86464 1.12919 6.69535 1.22536 6.53113 1.31865L6.50624 1.33279L4.78154 2.31202L4.75646 2.32625C4.5888 2.4214 4.41702 2.51888 4.28197 2.615C4.13616 2.71878 3.93913 2.88398 3.82604 3.15132C3.70258 3.44318 3.74241 3.73734 3.77174 3.90748C3.80348 4.09159 3.86215 4.31745 3.92515 4.56002L3.93233 4.58765C4.32857 6.11369 3.36065 7.75534 1.79378 8.17782L1.76618 8.18526C1.52912 8.24915 1.30699 8.30902 1.13327 8.37204C0.970742 8.43099 0.699123 8.54165 0.507721 8.79149C0.331821 9.0211 0.285194 9.27273 0.266844 9.45083C0.249917 9.61511 0.249961 9.81161 0.250004 10.0028L0.250009 10.0316V11.9652L0.250004 11.994C0.249961 12.1852 0.249917 12.3817 0.266843 12.546C0.285191 12.7241 0.331814 12.9757 0.507701 13.2053C0.699093 13.4551 0.97071 13.5658 1.13322 13.6248C1.30694 13.6878 1.52907 13.7477 1.76613 13.8116L1.79374 13.819C3.36003 14.2414 4.32731 15.8828 3.93082 17.409L3.92365 17.4366L3.92364 17.4367C3.86061 17.6792 3.80192 17.905 3.77017 18.0891C3.74082 18.2593 3.70097 18.5534 3.82441 18.8453C3.93749 19.1127 4.13453 19.2779 4.28035 19.3817C4.41542 19.4778 4.58724 19.5753 4.75493 19.6705L6.52952 20.6781L6.5296 20.6781C6.69382 20.7714 6.8631 20.8675 7.01315 20.9334C7.17639 21.0051 7.41618 21.0879 7.70059 21.0495C8.00977 21.0078 8.23894 20.8303 8.37072 20.7194C8.51065 20.6017 8.67142 20.4413 8.84237 20.2706L8.86249 20.2506C10.0298 19.0858 11.9719 19.0857 13.1391 20.2505L13.1593 20.2706C13.3302 20.4412 13.491 20.6017 13.6309 20.7194C13.7627 20.8302 13.9918 21.0078 14.301 21.0494C14.5854 21.0878 14.8252 21.005 14.9885 20.9333C15.1385 20.8674 15.3078 20.7713 15.472 20.678L17.2467 19.6704C17.4144 19.5752 17.5862 19.4777 17.7213 19.3816C17.8671 19.2778 18.0642 19.1125 18.1772 18.8451C18.3007 18.5532 18.2608 18.2591 18.2314 18.0889C18.1997 17.9049 18.141 17.6791 18.0779 17.4366L18.0779 17.4365L18.0707 17.4088C17.674 15.8824 18.6406 14.2414 20.2063 13.819L20.2339 13.8116C20.471 13.7477 20.6931 13.6878 20.8668 13.6247C21.0293 13.5658 21.301 13.4551 21.4923 13.2052C21.6682 12.9756 21.7148 12.724 21.7332 12.5459C21.7501 12.3817 21.7501 12.1852 21.75 11.994V10.0028C21.7501 9.81163 21.7501 9.61513 21.7332 9.45085C21.7148 9.27276 21.6682 9.02114 21.4923 8.79154C21.3009 8.54169 21.0293 8.43102 20.8668 8.37206C20.6931 8.30904 20.4709 8.24916 20.2339 8.18525L20.2063 8.17781C18.64 7.7554 17.6727 6.11404 18.0692 4.58781L18.0764 4.56022L18.0764 4.56019C18.1394 4.31765 18.1981 4.0918 18.2299 3.90769C18.2592 3.73753 18.2991 3.44338 18.1756 3.1515C18.0625 2.88413 17.8655 2.71891 17.7197 2.61512C17.5846 2.51899 17.4128 2.4215 17.2451 2.32635L17.2451 2.32634L15.4705 1.31876C15.3063 1.22546 15.137 1.12929 14.9869 1.06341C14.8237 0.991752 14.5839 0.908983 14.2995 0.947295C13.9904 0.988943 13.7612 1.16646 13.6294 1.2773C13.4895 1.39498 13.3287 1.55541 13.1577 1.726L13.1376 1.74613C11.9711 2.90982 10.0306 2.90979 8.86405 1.74604L8.84389 1.72593C8.67292 1.55533 8.51213 1.3949 8.37221 1.27721C8.24043 1.16637 8.01124 0.988849 7.70208 0.947199ZM8.25 11C8.25 9.48122 9.48122 8.25 11 8.25C12.5188 8.25 13.75 9.48122 13.75 11C13.75 12.5188 12.5188 13.75 11 13.75C9.48122 13.75 8.25 12.5188 8.25 11ZM11 6.75C8.65279 6.75 6.75 8.65279 6.75 11C6.75 13.3472 8.65279 15.25 11 15.25C13.3472 15.25 15.25 13.3472 15.25 11C15.25 8.65279 13.3472 6.75 11 6.75Z" fill="#717784"/>
</svg>
