<svg width="18" height="18" viewBox="0 0 18 18" fill="none" xmlns="http://www.w3.org/2000/svg">
<path opacity="0.12" fill-rule="evenodd" clip-rule="evenodd" d="M17.3337 9.00033C17.3337 11.3645 16.3492 13.4987 14.7679 15.0153C14.5039 14.3476 13.5034 13.8017 12.8273 13.4327C12.712 13.3698 12.606 13.312 12.5149 13.2596C10.3646 12.025 7.63609 12.025 5.48579 13.2596C5.39459 13.312 5.28868 13.3698 5.17332 13.4327C4.49723 13.8017 3.49677 14.3476 3.2328 15.0153C1.65146 13.4987 0.666992 11.3645 0.666992 9.00033C0.666992 4.39795 4.39795 0.666992 9.00033 0.666992C13.6027 0.666992 17.3337 4.39795 17.3337 9.00033ZM9.00033 10.2503C10.6112 10.2503 11.917 8.94449 11.917 7.33366C11.917 5.72283 10.6112 4.41699 9.00033 4.41699C7.3895 4.41699 6.08366 5.72283 6.08366 7.33366C6.08366 8.94449 7.3895 10.2503 9.00033 10.2503Z" fill="#049CCC"/>
<path fill-rule="evenodd" clip-rule="evenodd" d="M1.29199 8.97079C1.29199 4.732 4.74104 1.29199 9.00033 1.29199C13.2596 1.29199 16.7087 4.732 16.7087 8.97079C16.7087 10.0785 16.4736 11.1299 16.051 12.0795C15.9106 12.3949 16.0525 12.7643 16.3679 12.9047C16.6832 13.045 17.0527 12.9031 17.193 12.5878C17.6854 11.4814 17.9587 10.2571 17.9587 8.97079C17.9587 4.03746 13.9458 0.0419922 9.00033 0.0419922C4.05487 0.0419922 0.0419922 4.03746 0.0419922 8.97079C0.0419922 10.2571 0.315267 11.4814 0.807654 12.5878C0.947997 12.9031 1.31742 13.045 1.63278 12.9047C1.94814 12.7643 2.09001 12.3949 1.94967 12.0795C1.52706 11.1299 1.29199 10.0785 1.29199 8.97079ZM9.00065 5.04199C7.735 5.04199 6.70898 6.06801 6.70898 7.33366C6.70898 8.59931 7.735 9.62533 9.00065 9.62533C10.2663 9.62533 11.2923 8.59931 11.2923 7.33366C11.2923 6.06801 10.2663 5.04199 9.00065 5.04199ZM5.45898 7.33366C5.45898 5.37765 7.04464 3.79199 9.00065 3.79199C10.9567 3.79199 12.5423 5.37765 12.5423 7.33366C12.5423 9.28967 10.9567 10.8753 9.00065 10.8753C7.04464 10.8753 5.45898 9.28967 5.45898 7.33366ZM12.2038 13.802C10.2462 12.678 7.75476 12.678 5.79718 13.802C5.68297 13.8676 5.55985 13.935 5.43234 14.0048L5.43208 14.0049L5.432 14.005L5.43199 14.005L5.43197 14.005C4.97186 14.2568 4.45473 14.54 4.09352 14.8809C3.8684 15.0934 3.80271 15.2421 3.79351 15.3233C3.78911 15.3622 3.78096 15.4977 4.05191 15.7466C4.70837 16.3497 5.36042 16.709 6.14273 16.709H11.8583C12.6406 16.709 13.2926 16.3497 13.9491 15.7466C14.22 15.4977 14.2119 15.3622 14.2075 15.3233C14.1983 15.2421 14.1326 15.0934 13.9075 14.8809C13.5463 14.5399 13.0291 14.2568 12.569 14.005C12.4414 13.9351 12.3181 13.8676 12.2038 13.802ZM12.8262 12.718C12.8974 12.7588 12.9869 12.8074 13.0893 12.8631L13.0894 12.8631C13.5496 13.1133 14.2716 13.5057 14.7655 13.9719C15.073 14.2621 15.3911 14.6673 15.4495 15.1825C15.5127 15.74 15.256 16.2434 14.7948 16.6671C14.0206 17.3783 13.0792 17.959 11.8583 17.959H6.14273C4.92178 17.959 3.98044 17.3783 3.20625 16.6671C2.74502 16.2434 2.48827 15.74 2.55147 15.1825C2.60987 14.6673 2.92799 14.2621 3.23552 13.9719C3.72942 13.5057 4.45136 13.1133 4.91163 12.8632L4.91165 12.8631C5.01412 12.8075 5.10363 12.7588 5.17476 12.718C7.51778 11.3727 10.4832 11.3727 12.8262 12.718Z" fill="#049CCC"/>
</svg>
