<svg width="18" height="18" viewBox="0 0 18 18" fill="none" xmlns="http://www.w3.org/2000/svg">
<path opacity="0.12" fill-rule="evenodd" clip-rule="evenodd" d="M2.24238 2.24238C1.08301 3.40175 1.08301 5.26772 1.08301 8.99967C1.08301 12.7316 1.08301 14.5976 2.24238 15.757C3.40175 16.9163 5.26772 16.9163 8.99967 16.9163C12.7316 16.9163 14.5976 16.9163 15.757 15.757C16.9163 14.5976 16.9163 12.7316 16.9163 8.99967C16.9163 5.26772 16.9163 3.40175 15.757 2.24238C14.5976 1.08301 12.7316 1.08301 8.99967 1.08301C5.26772 1.08301 3.40175 1.08301 2.24238 2.24238ZM8.99288 8.99967C10.1451 8.99967 11.0792 8.06693 11.0792 6.91634C11.0792 5.76575 10.1451 4.83301 8.99288 4.83301C7.84065 4.83301 6.90658 5.76575 6.90658 6.91634C6.90658 8.06693 7.84065 8.99967 8.99288 8.99967Z" fill="#717784"/>
<path fill-rule="evenodd" clip-rule="evenodd" d="M9.04732 0.458008H8.95203C7.12644 0.457997 5.69254 0.457988 4.57303 0.608503C3.42581 0.762742 2.5156 1.08527 1.80044 1.80044C1.08527 2.5156 0.762742 3.42581 0.608503 4.57303C0.457988 5.69254 0.457997 7.12644 0.458008 8.95203V9.04732C0.457997 10.8729 0.457988 12.3068 0.608503 13.4263C0.762742 14.5735 1.08527 15.4837 1.80044 16.1989C2.5156 16.9141 3.42581 17.2366 4.57303 17.3908C5.69254 17.5414 7.12643 17.5414 8.95202 17.5413H8.95204H9.04731H9.04733C10.8729 17.5414 12.3068 17.5414 13.4263 17.3908C14.5735 17.2366 15.4837 16.9141 16.1989 16.1989C16.9141 15.4837 17.2366 14.5735 17.3908 13.4263C17.5414 12.3068 17.5414 10.8729 17.5413 9.04733V9.04731V8.95204V8.95202C17.5414 7.12643 17.5414 5.69254 17.3908 4.57303C17.2366 3.42581 16.9141 2.5156 16.1989 1.80044C15.4837 1.08527 14.5735 0.762742 13.4263 0.608503C12.3068 0.457988 10.8729 0.457997 9.04732 0.458008ZM2.68432 2.68432C3.12852 2.24012 3.73098 1.98296 4.73959 1.84736C5.76617 1.70934 7.11603 1.70801 8.99967 1.70801C10.8833 1.70801 12.2332 1.70934 13.2598 1.84736C14.2684 1.98296 14.8708 2.24012 15.315 2.68432C15.7592 3.12852 16.0164 3.73098 16.152 4.73959C16.29 5.76617 16.2913 7.11603 16.2913 8.99967C16.2913 10.8833 16.29 12.2332 16.152 13.2598C16.0164 14.2684 15.7592 14.8708 15.315 15.315C14.8708 15.7592 14.2684 16.0164 13.2598 16.152C12.2332 16.29 10.8833 16.2913 8.99967 16.2913C7.11603 16.2913 5.76617 16.29 4.73959 16.152C3.73098 16.0164 3.12852 15.7592 2.68432 15.315C2.24012 14.8708 1.98296 14.2684 1.84736 13.2598C1.70934 12.2332 1.70801 10.8833 1.70801 8.99967C1.70801 7.11603 1.70934 5.76617 1.84736 4.73959C1.98296 3.73098 2.24012 3.12852 2.68432 2.68432ZM7.53164 6.91634C7.53164 6.11176 8.18505 5.45801 8.99294 5.45801C9.80084 5.45801 10.4542 6.11176 10.4542 6.91634C10.4542 7.72092 9.80084 8.37467 8.99294 8.37467C8.18505 8.37467 7.53164 7.72092 7.53164 6.91634ZM8.99294 4.20801C7.49637 4.20801 6.28164 5.41973 6.28164 6.91634C6.28164 8.41295 7.49637 9.62467 8.99294 9.62467C10.4895 9.62467 11.7042 8.41295 11.7042 6.91634C11.7042 5.41973 10.4895 4.20801 8.99294 4.20801ZM5.70205 13.5979C7.41072 11.8083 10.5853 11.7398 12.2904 13.5899C12.5243 13.8437 12.9197 13.8599 13.1736 13.6259C13.4274 13.392 13.4435 12.9966 13.2096 12.7428C10.9868 10.3309 6.97545 10.4541 4.79795 12.7347C4.55959 12.9844 4.56874 13.38 4.8184 13.6184C5.06806 13.8568 5.46368 13.8476 5.70205 13.5979Z" fill="#717784"/>
</svg>
