<svg width="30" height="30" viewBox="0 0 30 30" fill="none" xmlns="http://www.w3.org/2000/svg">
<g filter="url(#filter0_d_42_4476)">
<path fill-rule="evenodd" clip-rule="evenodd" d="M18.2572 5.13593L16.5909 3.46956C15.7122 2.59088 14.2876 2.59088 13.4089 3.46956L11.7425 5.13593H9.38593C8.14329 5.13593 7.13593 6.14328 7.13593 7.38593V9.74253L5.46956 11.4089C4.59088 12.2876 4.59088 13.7122 5.46956 14.5909L7.13593 16.2572V18.6139C7.13593 19.8565 8.14328 20.8639 9.38593 20.8639H11.7425L13.4089 22.5302C14.2876 23.4089 15.7122 23.4089 16.5909 22.5302L18.2572 20.8639H20.6139C21.8565 20.8639 22.8639 19.8565 22.8639 18.6139V16.2572L24.5302 14.5909C25.4089 13.7122 25.4089 12.2876 24.5302 11.4089L22.8639 9.74253V7.38593C22.8639 6.14329 21.8565 5.13593 20.6139 5.13593H18.2572ZM17.4163 6.41626C17.5569 6.55691 17.7477 6.63593 17.9466 6.63593H20.6139C21.0281 6.63593 21.3638 6.97171 21.3638 7.38593V10.0532C21.3638 10.2521 21.4429 10.4429 21.5835 10.5835L23.4696 12.4696C23.7625 12.7625 23.7625 13.2373 23.4696 13.5302L21.5835 15.4163C21.4429 15.5569 21.3638 15.7477 21.3638 15.9466V18.6139C21.3638 19.0281 21.0281 19.3638 20.6139 19.3638H17.9466C17.7477 19.3638 17.5569 19.4429 17.4163 19.5835L15.5302 21.4696C15.2373 21.7625 14.7625 21.7625 14.4696 21.4696L12.5835 19.5835C12.4429 19.4429 12.2521 19.3638 12.0532 19.3638H9.38593C8.97171 19.3638 8.63593 19.0281 8.63593 18.6139V15.9466C8.63593 15.7477 8.55691 15.5569 8.41626 15.4163L6.53022 13.5302C6.23732 13.2373 6.23732 12.7625 6.53022 12.4696L8.41626 10.5835C8.55691 10.4429 8.63593 10.2521 8.63593 10.0532V7.38593C8.63593 6.97171 8.97171 6.63593 9.38593 6.63593H12.0532C12.2521 6.63593 12.4429 6.55691 12.5835 6.41626L14.4696 4.53022C14.7625 4.23732 15.2373 4.23732 15.5302 4.53022L17.4163 6.41626Z" fill="white"/>
<path d="M17.9466 6.63593C17.7477 6.63593 17.5569 6.55691 17.4163 6.41626L15.5302 4.53022C15.2373 4.23732 14.7625 4.23732 14.4696 4.53022L12.5835 6.41626C12.4429 6.55691 12.2521 6.63593 12.0532 6.63593H9.38593C8.97171 6.63593 8.63593 6.97171 8.63593 7.38593V10.0532C8.63593 10.2521 8.55691 10.4429 8.41626 10.5835L6.53022 12.4696C6.23732 12.7625 6.23732 13.2373 6.53022 13.5302L8.41626 15.4163C8.55691 15.5569 8.63593 15.7477 8.63593 15.9466V18.6138C8.63593 19.0281 8.97171 19.3639 9.38593 19.3639H12.0532C12.2521 19.3639 12.4429 19.4429 12.5835 19.5835L14.4696 21.4696C14.7625 21.7625 15.2373 21.7625 15.5302 21.4696L17.4163 19.5835C17.5569 19.4429 17.7477 19.3639 17.9466 19.3639H20.6138C21.0281 19.3639 21.3639 19.0281 21.3639 18.6139V15.9466C21.3639 15.7477 21.4429 15.5569 21.5835 15.4163L23.4696 13.5302C23.7625 13.2373 23.7625 12.7625 23.4696 12.4696L21.5835 10.5835C21.4429 10.4429 21.3639 10.2521 21.3639 10.0532V7.38593C21.3639 6.97171 21.0281 6.63593 20.6139 6.63593H17.9466Z" fill="#47C2FF"/>
<path fill-rule="evenodd" clip-rule="evenodd" d="M19.0304 11.0304L14.0001 16.0607L11.4697 13.5304L12.5304 12.4697L14.0001 13.9394L17.9697 9.96973L19.0304 11.0304Z" fill="white"/>
</g>
<defs>
<filter id="filter0_d_42_4476" x="-1" y="-1" width="32" height="32" filterUnits="userSpaceOnUse" color-interpolation-filters="sRGB">
<feFlood flood-opacity="0" result="BackgroundImageFix"/>
<feColorMatrix in="SourceAlpha" type="matrix" values="0 0 0 0 0 0 0 0 0 0 0 0 0 0 0 0 0 0 127 0" result="hardAlpha"/>
<feOffset dy="2"/>
<feGaussianBlur stdDeviation="2"/>
<feColorMatrix type="matrix" values="0 0 0 0 0.105882 0 0 0 0 0.109804 0 0 0 0 0.113725 0 0 0 0.04 0"/>
<feBlend mode="normal" in2="BackgroundImageFix" result="effect1_dropShadow_42_4476"/>
<feBlend mode="normal" in="SourceGraphic" in2="effect1_dropShadow_42_4476" result="shape"/>
</filter>
</defs>
</svg>
